<?xml version="1.0" encoding="utf-8"?>
<!-- Generator: Adobe Illustrator 30.1.0, SVG Export Plug-In . SVG Version: 9.03 Build 0)  -->
<svg version="1.0" id="Layer_1" xmlns="http://www.w3.org/2000/svg" xmlns:xlink="http://www.w3.org/1999/xlink" x="0px" y="0px"
	 viewBox="0 0 1899.77 1899.77" style="enable-background:new 0 0 1899.77 1899.77;" xml:space="preserve">
<style type="text/css">
	.st0{fill:#1475E9;}
	.st1{fill:none;}
	.st2{fill:#FFFFFF;}
</style>
<g>
	<g>
		<g>
			<path class="st0" d="M1456.15,850.17l-274.18,0.02l28.09-112.3c44.62,13.89,93.63,3.07,126.31-29.48
				c25.95-25.85,43.16-60.63,48.99-101.74l-161.89-55.86l-161.96-55.65c-20.71,35.99-28.57,73.99-24.03,110.33
				c5.72,45.77,37.67,84.48,81.39,100.99l-32.92,74.09c20.26,18.68,36.4,41.74,46.73,69.6c-157.12-23.62-28,353.72-50.15,445.01
				c1.11,107.64-85.17,148.83-159.13,66.7c-99.48-122.91-128.75-94.47-167.17-52.02c-55.1,60.88-155.76,33.41-172.77-46.92
				c-29.3-138.41-4.28-360.18,72.77-454.03c43.96-53.55,131.27-87.16,220.12-91.46c-17.55-11.48-35.72-22.21-54.51-32.17
				c-124.16-65.84-70.63-148.24-134.22-179.53c-18.84-9.3-47.18-8.09-67.33,0.86l-118.18,52.65c-20.25,9-26.06,50.56-23.65,69.13
				c2.87,22.4,39.35,42,45.76,60.73c0.22,0.65,0.46,1.34,0.7,2.07c17.31,51.51,25.05,105.38,23.29,158.99l-64.35,0
				c0,0-96.43-1.56-96.43,56.04c0,28.65,29.27,53.93,81.35,53.96l26.48,0l103.56,662.03c9.02,52.92,71.99,77.95,117.62,81.65
				l253.56-0.79l253.56,0.79c45.63-3.7,108.6-28.73,117.62-81.65l103.56-662.03l26.48,0c52.08-0.03,81.35-25.31,81.35-53.96
				C1552.58,848.61,1456.15,850.17,1456.15,850.17z M1107.37,1030.4l-7.49-1.78l7.49-1.78c18.55-4.41,33.04-18.89,37.45-37.45
				l1.78-7.49l1.78,7.49c4.41,18.55,18.89,33.04,37.45,37.45l7.49,1.78l-7.49,1.78c-18.55,4.41-33.04,18.89-37.45,37.45l-1.78,7.5
				l-1.78-7.5C1140.41,1049.3,1125.92,1034.81,1107.37,1030.4z M1222.48,1241.81c-10.46,2.74-18.62,10.9-21.36,21.36l-7.55,28.84
				l-7.55-28.84c-2.74-10.46-10.9-18.62-21.36-21.36l-28.84-7.55l28.84-7.55c10.46-2.74,18.62-10.9,21.36-21.36l7.55-28.84
				l7.55,28.84c2.74,10.46,10.9,18.62,21.36,21.36l28.84,7.55L1222.48,1241.81z M1323.38,1123.9
				c-13.09,2.87-23.31,13.09-26.17,26.17l-10.67,48.73l-10.67-48.74c-2.86-13.09-13.09-23.31-26.17-26.17l-48.74-10.67l48.74-10.67
				c13.09-2.86,23.31-13.09,26.17-26.17l10.67-48.73l10.67,48.73c2.86,13.09,13.09,23.31,26.17,26.17l48.74,10.67L1323.38,1123.9z"
				/>
			<path class="st0" d="M473.45,447.2l103.13-43.26c-17.18-101.16,97.68-79.36,108.36-130.04c8.66-41.15-129.81-116.28-263.01-54.55
				L193.5,325.21c12.29,41.4,26.59,75.79,46.05,114.37l103.64-38.39C393.63,382.52,440.94,403.91,473.45,447.2z"/>
			<path class="st0" d="M424.58,422.69c-20.75-19.53-65.43-16.41-88.37-2.9c2.4,73.46-3.37,138.54-18.01,211.06
				c-1.69,8.36,7.49,26.85,15.67,29.29C380.71,674.13,439.5,465.63,424.58,422.69z"/>
			<path class="st0" d="M608.07,412.67c-50.72,13.21-99.1,32.11-142,59.76c-21.51,13.86,4.3,78.13,28.23,70.39
				c52.2-16.88,102.77-38.99,149.98-63.7C651.01,456.44,628.11,407.45,608.07,412.67z"/>
			<path class="st0" d="M137.43,369.16c7.18,29.01,19.46,56.13,34.74,80.82c10.69,0.2,29.68-5.96,44.91-13.46
				c-16.07-32.97-27.85-62.21-37.93-94.15C163,347.82,146.39,358.91,137.43,369.16z"/>
			<path class="st0" d="M771,293.94l-9.17,26.86c-27.58,80.38,16.33,168.25,98.03,196.19l150.04,51.31
				c2.6-29.18,11.91-58.51,28.04-86.53l11.02-19.16l0.35,0.12l0.03-0.09l54.47,18.82l128.35,44.11l128.3,44.27l54.5,18.7l-0.03,0.09
				l0.35,0.12l-3.11,21.88c-4.54,32.01-15.26,60.85-31.18,85.45l149.82,51.94c81.59,28.29,170.28-13.93,198.03-94.24l9.32-26.81
				l-483.58-166.51L771,293.94z"/>
			<polygon class="st0" points="1278.05,392.29 793.79,225.5 776,277.17 1260.26,443.95 1744.55,610.67 1762.34,559 			"/>
		</g>
	</g>
</g>
</svg>
